<?xml version="1.0" encoding="UTF-8" standalone="no"?>
<!-- Created with Inkscape (http://www.inkscape.org/) -->

<svg
   version="1.1"
   id="svg2"
   width="99.533333"
   height="135.2"
   viewBox="0 0 99.533333 135.2"
   sodipodi:docname="BEVARA_B_COLOR-BLUE.eps"
   xmlns:inkscape="http://www.inkscape.org/namespaces/inkscape"
   xmlns:sodipodi="http://sodipodi.sourceforge.net/DTD/sodipodi-0.dtd"
   xmlns="http://www.w3.org/2000/svg"
   xmlns:svg="http://www.w3.org/2000/svg">
  <defs
     id="defs6">
    <clipPath
       clipPathUnits="userSpaceOnUse"
       id="clipPath20">
      <path
         d="m 480.586,715.781 c 0,0.008 0,0.016 0,0.02 0,-0.004 0,-0.012 0,-0.02 m 211.965,5.434 c 0,0.07 0,0.148 0,0.223 0,-0.075 0,-0.149 0,-0.223 m 0,0.277 c 0,0.063 0,0.117 -0.004,0.18 0.004,-0.059 0.004,-0.121 0.004,-0.18 m -0.004,0.227 c 0,0.082 0,0.14 0,0.222 0,-0.074 0,-0.148 0,-0.222 m 0,0.258 c 0,0.062 0,0.121 0,0.183 0,-0.062 0,-0.121 0,-0.183 m 0,0.246 c 0,0.062 0,0.129 0,0.191 0,-0.066 0,-0.121 0,-0.191 m 0,0.218 c 0,0.075 0,0.153 0,0.223 0,-0.074 0,-0.148 0,-0.223 m 0,0.274 c 0,0.062 0,0.113 -0.004,0.176 0.004,-0.059 0.004,-0.118 0.004,-0.176 m -0.004,0.23 c 0,0.071 0,0.149 0,0.219 0,-0.074 0,-0.144 0,-0.219 m 0,0.25 c 0,0.059 0,0.133 -0.004,0.196 0.004,-0.067 0.004,-0.129 0.004,-0.196 m -0.004,0.246 c 0,0.063 0,0.133 0,0.196 0,-0.067 0,-0.129 0,-0.196 m 0,0.223 c 0,0.082 0,0.145 -0.004,0.227 0.004,-0.078 0.004,-0.149 0.004,-0.227 m -0.004,0.262 c 0,0.062 0,0.133 0,0.191 0,-0.062 0,-0.125 0,-0.191 m 0,0.238 c -0.004,0.141 -0.004,0.309 -0.004,0.449 0,-0.148 0,-0.3 0.004,-0.449 m -0.004,0.492 c -0.004,0.063 -0.004,0.141 -0.004,0.203 0,-0.066 0,-0.136 0.004,-0.203 m -0.004,0.227 c 0,0.082 -0.004,0.152 -0.004,0.234 0,-0.078 0.004,-0.156 0.004,-0.234 m -0.004,0.246 c 0,0.082 0,0.141 -0.003,0.219 0.003,-0.071 0.003,-0.145 0.003,-0.219 m -0.003,0.246 c 0,0.164 -0.004,0.309 -0.004,0.473 0,-0.16 0.004,-0.317 0.004,-0.473 m -0.004,0.484 c -0.004,0.079 -0.004,0.149 -0.004,0.231 0,-0.078 0,-0.156 0.004,-0.231 m -0.004,0.239 c -0.004,0.16 -0.008,0.32 -0.008,0.48 0,-0.156 0.004,-0.324 0.008,-0.48 m -0.008,0.484 c -0.25,14.266 -1.492,28.211 -3.676,41.805 2.18,-13.586 3.426,-27.543 3.676,-41.805 m -3.68,41.828 c -0.008,0.059 -0.019,0.129 -0.027,0.188 0.008,-0.063 0.019,-0.125 0.027,-0.188 m -0.035,0.235 c -0.012,0.066 -0.023,0.132 -0.031,0.203 0.008,-0.067 0.019,-0.137 0.031,-0.203 m -0.043,0.265 c -0.008,0.047 -0.016,0.09 -0.023,0.137 0.007,-0.047 0.015,-0.094 0.023,-0.137 m -0.039,0.235 c -0.004,0.027 -0.012,0.066 -0.016,0.093 0.008,-0.035 0.012,-0.062 0.016,-0.093 m -0.086,0.519 c 0,0.012 -0.004,0.02 -0.004,0.027 0,-0.011 0.004,-0.015 0.004,-0.027 m -309.832,32.371 c -0.008,0 -0.016,0 -0.023,0 0.007,0 0.015,0 0.023,0 m -0.176,0.004 c -0.011,0 -0.019,0 -0.035,0 0.016,0 0.024,0 0.035,0 m -0.172,0 c -0.015,0.004 -0.027,0.004 -0.043,0.004 0.012,0 0.032,0 0.043,-0.004 m -0.187,0.004 c -0.008,0 -0.02,0 -0.027,0 0.007,0 0.019,0 0.027,0 m -0.203,0 c -0.004,0 -0.012,0 -0.016,0 0.004,0 0.012,0 0.016,0 m -0.172,0 c -0.016,0 -0.031,0 -0.051,0 0.016,0 0.035,0 0.051,0 m -0.172,0.004 c -0.019,0 -0.039,0 -0.059,0 0.02,0 0.04,0 0.059,0 m -0.176,0 c -0.019,0 -0.039,0 -0.058,0 0.019,0 0.039,0 0.058,0 m -0.176,0 c -0.015,0 -0.039,0 -0.054,0 0.019,0 0.035,0 0.054,0"
         id="path18" />
    </clipPath>
    <linearGradient
       x1="0"
       y1="0"
       x2="1"
       y2="0"
       gradientUnits="userSpaceOnUse"
       gradientTransform="matrix(-58.1433,-329.747,-329.747,58.1433,547.744,914.199)"
       spreadMethod="pad"
       id="linearGradient28">
      <stop
         style="stop-opacity:1;stop-color:#ffffff"
         offset="0"
         id="stop22" />
      <stop
         style="stop-opacity:1;stop-color:#ffffff"
         offset="0.33"
         id="stop24" />
      <stop
         style="stop-opacity:1;stop-color:#758fd1"
         offset="1"
         id="stop26" />
    </linearGradient>
    <clipPath
       clipPathUnits="userSpaceOnUse"
       id="clipPath38">
      <path
         d="m 618.477,561.723 c -69.258,45.5 -116.653,62.004 -303.985,62.004 h 63.418 c 62.422,0.253 102.676,43.046 102.676,91.921 v 0 0 0 c 0,0.047 0,0.09 0,0.133 0,0.008 0,0.016 0,0.02 -0.012,7.758 -1.008,15.234 -3.008,22.301 -10.379,37.171 -46.793,63.39 -98.789,63.933 -0.008,0 -0.016,0 -0.023,0 -0.051,0.004 -0.102,0.004 -0.153,0.004 -0.011,0 -0.019,0 -0.035,0 -0.043,0 -0.09,0 -0.137,0 -0.011,0.004 -0.031,0.004 -0.043,0.004 -0.046,0 -0.097,0 -0.144,0 -0.008,0 -0.02,0 -0.027,0 -0.063,0 -0.118,0 -0.176,0 -0.004,0 -0.012,0 -0.016,0 -0.055,0 -0.101,0 -0.156,0 -0.016,0 -0.035,0 -0.051,0 -0.039,0.004 -0.082,0.004 -0.121,0.004 -0.019,0 -0.039,0 -0.059,0 -0.039,0 -0.078,0 -0.117,0 -0.019,0 -0.039,0 -0.058,0 -0.039,0 -0.075,0 -0.118,0 -0.019,0 -0.035,0 -0.054,0 -0.059,0 -0.113,0 -0.172,0 v 0 c 0,0 135.254,102.504 217.621,102.504 20.695,0 38.066,-6.481 49.098,-22.68 22.488,-33.004 37.953,-70.894 44.769,-112.18 0,-0.007 0.004,-0.015 0.004,-0.027 0.024,-0.137 0.047,-0.285 0.07,-0.426 0.004,-0.027 0.012,-0.066 0.016,-0.093 0.008,-0.036 0.012,-0.067 0.016,-0.098 0.007,-0.047 0.015,-0.09 0.023,-0.137 0.004,-0.019 0.008,-0.043 0.012,-0.062 0.008,-0.071 0.019,-0.137 0.031,-0.203 0,-0.02 0.004,-0.028 0.008,-0.047 0.008,-0.059 0.019,-0.129 0.027,-0.188 0.004,-0.008 0.004,-0.015 0.004,-0.023 2.184,-13.594 3.426,-27.539 3.676,-41.805 0,-0.004 0,0 0,-0.004 0,-0.16 0.004,-0.32 0.008,-0.48 0,-0.004 0,-0.004 0,-0.008 0,-0.082 0,-0.152 0.004,-0.231 0,-0.004 0,-0.011 0,-0.011 0,-0.164 0.004,-0.309 0.004,-0.473 0,-0.012 0,-0.016 0,-0.027 0.003,-0.078 0.003,-0.137 0.003,-0.219 0,-0.004 0,-0.008 0,-0.012 0,-0.082 0.004,-0.152 0.004,-0.234 0,-0.008 0,-0.016 0,-0.024 0,-0.062 0,-0.14 0.004,-0.203 0,-0.011 0,-0.027 0,-0.043 0,-0.14 0,-0.308 0.004,-0.449 0,-0.016 0,-0.031 0,-0.047 0,-0.058 0,-0.129 0,-0.191 0,-0.012 0,-0.024 0,-0.035 0.004,-0.082 0.004,-0.145 0.004,-0.227 0,-0.008 0,-0.019 0,-0.027 0,-0.063 0,-0.133 0,-0.196 0,-0.019 0,-0.035 0,-0.05 0.004,-0.063 0.004,-0.137 0.004,-0.196 0,-0.007 0,-0.023 0,-0.031 0,-0.07 0,-0.148 0,-0.219 0,-0.019 0,-0.039 0,-0.054 0.004,-0.063 0.004,-0.114 0.004,-0.176 0,-0.02 0,-0.035 0,-0.051 0,-0.07 0,-0.148 0,-0.223 0,-0.003 0,-0.019 0,-0.027 0,-0.062 0,-0.129 0,-0.191 0,-0.016 0,-0.047 0,-0.063 0,-0.062 0,-0.121 0,-0.183 0,-0.012 0,-0.028 0,-0.036 0,-0.082 0,-0.14 0,-0.222 0,-0.02 0,-0.031 0,-0.047 0.004,-0.063 0.004,-0.117 0.004,-0.18 0,-0.015 0,-0.039 0,-0.054 0,-0.075 0,-0.153 0,-0.223 v 0 c 0,-62.176 -28.203,-122.059 -74.074,-159.492 v 0 0"
         id="path36" />
    </clipPath>
    <linearGradient
       x1="0"
       y1="0"
       x2="1"
       y2="0"
       gradientUnits="userSpaceOnUse"
       gradientTransform="matrix(-58.1433,-329.747,-329.747,58.1433,547.744,914.199)"
       spreadMethod="pad"
       id="linearGradient46">
      <stop
         style="stop-opacity:1;stop-color:#6096d6"
         offset="0"
         id="stop40" />
      <stop
         style="stop-opacity:1;stop-color:#6096d6"
         offset="0.33"
         id="stop42" />
      <stop
         style="stop-opacity:1;stop-color:#3b69bc"
         offset="1"
         id="stop44" />
    </linearGradient>
  </defs>
  <sodipodi:namedview
     id="namedview4"
     pagecolor="#ffffff"
     bordercolor="#000000"
     borderopacity="0.25"
     inkscape:showpageshadow="2"
     inkscape:pageopacity="0.0"
     inkscape:pagecheckerboard="0"
     inkscape:deskcolor="#d1d1d1" />
  <g
     id="g8"
     inkscape:groupmode="layer"
     inkscape:label="ink_ext_XXXXXX"
     transform="matrix(1.3333333,0,0,-1.3333333,0,135.2)">
    <g
       id="g10"
       transform="scale(0.1)">
      <path
         d="M 401.809,211.949 H 222.832 v 590.098 h 154.297 c 62.851,0 103.457,-37.305 103.457,-86.399 0,-48.875 -40.254,-91.668 -102.676,-91.921 H 281.074 V 434.059 h 120.735 c 80.691,0 132.793,-48.047 132.793,-113.821 0,-65.761 -52.102,-108.289 -132.793,-108.289 m 216.668,349.774 c 45.871,37.433 74.074,97.316 74.074,159.492 0,166.894 -135.617,292.745 -315.422,292.745 L 0,1013.96 V 0 h 401.809 c 96.406,0 184.109,32.457 246.961,91.4297 63.066,59.1133 97.753,140.4103 97.753,228.8083 0,97.364 -57.109,194.875 -128.046,241.485"
         style="fill:#6097d6;fill-opacity:1;fill-rule:nonzero;stroke:none"
         id="path12" />
      <g
         id="g14">
        <g
           id="g16"
           clip-path="url(#clipPath20)">
          <path
             d="m 480.586,715.781 c 0,0.008 0,0.016 0,0.02 0,-0.004 0,-0.012 0,-0.02 m 211.965,5.434 c 0,0.07 0,0.148 0,0.223 0,-0.075 0,-0.149 0,-0.223 m 0,0.277 c 0,0.063 0,0.117 -0.004,0.18 0.004,-0.059 0.004,-0.121 0.004,-0.18 m -0.004,0.227 c 0,0.082 0,0.14 0,0.222 0,-0.074 0,-0.148 0,-0.222 m 0,0.258 c 0,0.062 0,0.121 0,0.183 0,-0.062 0,-0.121 0,-0.183 m 0,0.246 c 0,0.062 0,0.129 0,0.191 0,-0.066 0,-0.121 0,-0.191 m 0,0.218 c 0,0.075 0,0.153 0,0.223 0,-0.074 0,-0.148 0,-0.223 m 0,0.274 c 0,0.062 0,0.113 -0.004,0.176 0.004,-0.059 0.004,-0.118 0.004,-0.176 m -0.004,0.23 c 0,0.071 0,0.149 0,0.219 0,-0.074 0,-0.144 0,-0.219 m 0,0.25 c 0,0.059 0,0.133 -0.004,0.196 0.004,-0.067 0.004,-0.129 0.004,-0.196 m -0.004,0.246 c 0,0.063 0,0.133 0,0.196 0,-0.067 0,-0.129 0,-0.196 m 0,0.223 c 0,0.082 0,0.145 -0.004,0.227 0.004,-0.078 0.004,-0.149 0.004,-0.227 m -0.004,0.262 c 0,0.062 0,0.133 0,0.191 0,-0.062 0,-0.125 0,-0.191 m 0,0.238 c -0.004,0.141 -0.004,0.309 -0.004,0.449 0,-0.148 0,-0.3 0.004,-0.449 m -0.004,0.492 c -0.004,0.063 -0.004,0.141 -0.004,0.203 0,-0.066 0,-0.136 0.004,-0.203 m -0.004,0.227 c 0,0.082 -0.004,0.152 -0.004,0.234 0,-0.078 0.004,-0.156 0.004,-0.234 m -0.004,0.246 c 0,0.082 0,0.141 -0.003,0.219 0.003,-0.071 0.003,-0.145 0.003,-0.219 m -0.003,0.246 c 0,0.164 -0.004,0.309 -0.004,0.473 0,-0.16 0.004,-0.317 0.004,-0.473 m -0.004,0.484 c -0.004,0.079 -0.004,0.149 -0.004,0.231 0,-0.078 0,-0.156 0.004,-0.231 m -0.004,0.239 c -0.004,0.16 -0.008,0.32 -0.008,0.48 0,-0.156 0.004,-0.324 0.008,-0.48 m -0.008,0.484 c -0.25,14.266 -1.492,28.211 -3.676,41.805 2.18,-13.586 3.426,-27.543 3.676,-41.805 m -3.68,41.828 c -0.008,0.059 -0.019,0.129 -0.027,0.188 0.008,-0.063 0.019,-0.125 0.027,-0.188 m -0.035,0.235 c -0.012,0.066 -0.023,0.132 -0.031,0.203 0.008,-0.067 0.019,-0.137 0.031,-0.203 m -0.043,0.265 c -0.008,0.047 -0.016,0.09 -0.023,0.137 0.007,-0.047 0.015,-0.094 0.023,-0.137 m -0.039,0.235 c -0.004,0.027 -0.012,0.066 -0.016,0.093 0.008,-0.035 0.012,-0.062 0.016,-0.093 m -0.086,0.519 c 0,0.012 -0.004,0.02 -0.004,0.027 0,-0.011 0.004,-0.015 0.004,-0.027 m -309.832,32.371 c -0.008,0 -0.016,0 -0.023,0 0.007,0 0.015,0 0.023,0 m -0.176,0.004 c -0.011,0 -0.019,0 -0.035,0 0.016,0 0.024,0 0.035,0 m -0.172,0 c -0.015,0.004 -0.027,0.004 -0.043,0.004 0.012,0 0.032,0 0.043,-0.004 m -0.187,0.004 c -0.008,0 -0.02,0 -0.027,0 0.007,0 0.019,0 0.027,0 m -0.203,0 c -0.004,0 -0.012,0 -0.016,0 0.004,0 0.012,0 0.016,0 m -0.172,0 c -0.016,0 -0.031,0 -0.051,0 0.016,0 0.035,0 0.051,0 m -0.172,0.004 c -0.019,0 -0.039,0 -0.059,0 0.02,0 0.04,0 0.059,0 m -0.176,0 c -0.019,0 -0.039,0 -0.058,0 0.019,0 0.039,0 0.058,0 m -0.176,0 c -0.015,0 -0.039,0 -0.054,0 0.019,0 0.035,0 0.054,0"
             style="fill:url(#linearGradient28);fill-opacity:1;fill-rule:nonzero;stroke:none"
             id="path30" />
        </g>
      </g>
      <g
         id="g32">
        <g
           id="g34"
           clip-path="url(#clipPath38)">
          <path
             d="m 618.477,561.723 c -69.258,45.5 -116.653,62.004 -303.985,62.004 h 63.418 c 62.422,0.253 102.676,43.046 102.676,91.921 v 0 0 0 c 0,0.047 0,0.09 0,0.133 0,0.008 0,0.016 0,0.02 -0.012,7.758 -1.008,15.234 -3.008,22.301 -10.379,37.171 -46.793,63.39 -98.789,63.933 -0.008,0 -0.016,0 -0.023,0 -0.051,0.004 -0.102,0.004 -0.153,0.004 -0.011,0 -0.019,0 -0.035,0 -0.043,0 -0.09,0 -0.137,0 -0.011,0.004 -0.031,0.004 -0.043,0.004 -0.046,0 -0.097,0 -0.144,0 -0.008,0 -0.02,0 -0.027,0 -0.063,0 -0.118,0 -0.176,0 -0.004,0 -0.012,0 -0.016,0 -0.055,0 -0.101,0 -0.156,0 -0.016,0 -0.035,0 -0.051,0 -0.039,0.004 -0.082,0.004 -0.121,0.004 -0.019,0 -0.039,0 -0.059,0 -0.039,0 -0.078,0 -0.117,0 -0.019,0 -0.039,0 -0.058,0 -0.039,0 -0.075,0 -0.118,0 -0.019,0 -0.035,0 -0.054,0 -0.059,0 -0.113,0 -0.172,0 v 0 c 0,0 135.254,102.504 217.621,102.504 20.695,0 38.066,-6.481 49.098,-22.68 22.488,-33.004 37.953,-70.894 44.769,-112.18 0,-0.007 0.004,-0.015 0.004,-0.027 0.024,-0.137 0.047,-0.285 0.07,-0.426 0.004,-0.027 0.012,-0.066 0.016,-0.093 0.008,-0.036 0.012,-0.067 0.016,-0.098 0.007,-0.047 0.015,-0.09 0.023,-0.137 0.004,-0.019 0.008,-0.043 0.012,-0.062 0.008,-0.071 0.019,-0.137 0.031,-0.203 0,-0.02 0.004,-0.028 0.008,-0.047 0.008,-0.059 0.019,-0.129 0.027,-0.188 0.004,-0.008 0.004,-0.015 0.004,-0.023 2.184,-13.594 3.426,-27.539 3.676,-41.805 0,-0.004 0,0 0,-0.004 0,-0.16 0.004,-0.32 0.008,-0.48 0,-0.004 0,-0.004 0,-0.008 0,-0.082 0,-0.152 0.004,-0.231 0,-0.004 0,-0.011 0,-0.011 0,-0.164 0.004,-0.309 0.004,-0.473 0,-0.012 0,-0.016 0,-0.027 0.003,-0.078 0.003,-0.137 0.003,-0.219 0,-0.004 0,-0.008 0,-0.012 0,-0.082 0.004,-0.152 0.004,-0.234 0,-0.008 0,-0.016 0,-0.024 0,-0.062 0,-0.14 0.004,-0.203 0,-0.011 0,-0.027 0,-0.043 0,-0.14 0,-0.308 0.004,-0.449 0,-0.016 0,-0.031 0,-0.047 0,-0.058 0,-0.129 0,-0.191 0,-0.012 0,-0.024 0,-0.035 0.004,-0.082 0.004,-0.145 0.004,-0.227 0,-0.008 0,-0.019 0,-0.027 0,-0.063 0,-0.133 0,-0.196 0,-0.019 0,-0.035 0,-0.05 0.004,-0.063 0.004,-0.137 0.004,-0.196 0,-0.007 0,-0.023 0,-0.031 0,-0.07 0,-0.148 0,-0.219 0,-0.019 0,-0.039 0,-0.054 0.004,-0.063 0.004,-0.114 0.004,-0.176 0,-0.02 0,-0.035 0,-0.051 0,-0.07 0,-0.148 0,-0.223 0,-0.003 0,-0.019 0,-0.027 0,-0.062 0,-0.129 0,-0.191 0,-0.016 0,-0.047 0,-0.063 0,-0.062 0,-0.121 0,-0.183 0,-0.012 0,-0.028 0,-0.036 0,-0.082 0,-0.14 0,-0.222 0,-0.02 0,-0.031 0,-0.047 0.004,-0.063 0.004,-0.117 0.004,-0.18 0,-0.015 0,-0.039 0,-0.054 0,-0.075 0,-0.153 0,-0.223 v 0 c 0,-62.176 -28.203,-122.059 -74.074,-159.492 v 0 0"
             style="fill:url(#linearGradient46);fill-opacity:1;fill-rule:nonzero;stroke:none"
             id="path48" />
        </g>
      </g>
    </g>
  </g>
</svg>
